<?xml version="1.0" standalone="no"?>
<!DOCTYPE svg PUBLIC "-//W3C//DTD SVG 1.1//EN" "http://www.w3.org/Graphics/SVG/1.1/DTD/svg11.dtd" >
<svg xmlns="http://www.w3.org/2000/svg">
<metadata>Generated by IcoMoon</metadata>
<defs>
<font id="fryan" horiz-adv-x="1024">
<font-face units-per-em="1024" ascent="839.6800000000001" descent="-184.32" />
<missing-glyph horiz-adv-x="1024" />
<glyph unicode="&#x20;" horiz-adv-x="102.4" d="" />
<glyph unicode="&#xe900;" glyph-name="home" d="M261.76 327.68c-17.673 0-32-14.327-32-32v0-303.68c0-17.673 14.327-32 32-32v0h194.56c17.673 0 32 14.327 32 32v0 155.84h47.36v-155.84c0-17.673 14.327-32 32-32v0h194.56c17.673 0 32 14.327 32 32v0 296c0 17.673-14.327 32-32 32s-32-14.327-32-32v0-264.96h-130.56v156.8c0 17.673-14.327 32-32 32v0h-111.36c-17.673 0-32-14.327-32-32v0-155.84h-130.56v271.68c0 17.673-14.327 32-32 32v0zM182.72 288c8.742 0.038 16.65 3.575 22.402 9.282l-0.002-0.002 306.88 305.6 306.88-304.96c5.904-6.865 14.6-11.185 24.305-11.185 17.673 0 32 14.327 32 32 0 9.705-4.321 18.401-11.143 24.27l-0.042 0.035-329.28 328.96c-5.8 5.846-13.837 9.466-22.72 9.466s-16.92-3.619-22.718-9.463l-329.282-328.962c-5.751-5.784-9.305-13.757-9.305-22.56s3.555-16.776 9.307-22.562l-0.002 0.002c5.739-6.014 13.776-9.792 22.696-9.92h0.024zM672 578.88h79.040v-83.52c0-17.673 14.327-32 32-32s32 14.327 32 32v0 115.52c0 17.673-14.327 32-32 32v0h-111.040c-17.673 0-32-14.327-32-32s14.327-32 32-32v0z" />
<glyph unicode="&#xe901;" glyph-name="dashboard" d="M509.44-38.72c198.116 0 358.72 160.604 358.72 358.72s-160.604 358.72-358.72 358.72c-198.116 0-358.72-160.604-358.72-358.72v0c0.363-197.969 160.751-358.356 358.685-358.72h0.035zM509.44 614.72c162.769 0 294.72-131.951 294.72-294.72s-131.951-294.72-294.72-294.72c-162.769 0-294.72 131.951-294.72 294.72v0c0.363 162.623 132.097 294.357 294.685 294.72h0.035zM512 203.52c29.401 0.128 55.921 12.361 74.851 31.969l0.029 0.031c26.24 25.92 73.92 132.48 109.44 217.28 1.548 3.626 2.448 7.845 2.448 12.275 0 17.673-14.327 32-32 32-4.343 0-8.484-0.865-12.26-2.433l0.212 0.078c-85.12-35.52-192-83.52-217.6-109.44-20.024-19.248-32.464-46.258-32.464-76.174 0-58.321 47.279-105.6 105.6-105.6 0.613 0 1.225 0.005 1.836 0.016l-0.092-0.001zM480 338.56c35.417 23.81 75.984 45.305 118.769 62.434l4.431 1.566c-19.006-47.297-40.484-87.843-65.599-125.769l1.599 2.569c-7.762-7.288-18.238-11.766-29.76-11.766s-21.998 4.477-29.783 11.787l0.023-0.022c-7.517 7.622-12.16 18.096-12.16 29.655 0 0.037 0 0.074 0 0.111v-0.006c0.077 11.536 4.838 21.945 12.473 29.433l0.007 0.007z" />
<glyph unicode="&#xe902;" glyph-name="settings" d="M217.28 205.44c1.92-4.16 3.52-8.32 5.44-12.8-6.319-12.449-10.021-27.144-10.021-42.704 0-26.897 11.061-51.21 28.883-68.639l0.018-0.017 30.080-32c17.377-17.399 41.395-28.161 67.926-28.161 16.227 0 31.513 4.026 44.915 11.133l-0.52-0.252 13.44-5.44c13.574-37.61 48.961-64.009 90.513-64.009 0.467 0 0.932 0.003 1.398 0.010l-0.070-0.001h44.8c41.638 0.289 77.076 26.522 90.977 63.326l0.223 0.674 14.72 5.44c12.505-6.386 27.275-10.128 42.919-10.128 26.95 0 51.306 11.105 68.742 28.988l0.019 0.020 32 30.080c16.528 17.493 26.688 41.154 26.688 67.189 0 15.986-3.831 31.078-10.625 44.407l0.257-0.555c1.92 4.48 3.84 8.96 5.44 13.44 37.619 13.569 64.027 48.96 64.027 90.519 0 0.802-0.010 1.602-0.029 2.399l0.002-0.118v43.84c-0.289 41.638-26.522 77.076-63.326 90.977l-0.674 0.223c-1.6 4.8-3.52 9.28-5.44 13.76 6.386 12.505 10.128 27.275 10.128 42.919 0 26.95-11.105 51.306-28.988 68.742l-0.020 0.019-30.080 32c-17.571 16.906-41.495 27.319-67.851 27.319-15.726 0-30.586-3.707-43.754-10.295l0.566 0.256-13.44 5.44c-13.574 37.61-48.961 64.009-90.513 64.009-0.467 0-0.932-0.003-1.398-0.010l0.070 0.001h-45.12c-0.156 0.001-0.341 0.001-0.525 0.001-41.843 0-77.536-26.331-91.413-63.328l-0.221-0.673-13.44-5.44c-12.505 6.386-27.275 10.128-42.919 10.128-26.95 0-51.306-11.105-68.742-28.988l-0.019-0.020-32-30.080c-16.528-17.493-26.688-41.154-26.688-67.189 0-15.986 3.831-31.078 10.625-44.407l-0.257 0.555c-1.92-4.48-3.84-8.96-5.44-13.44-37.684-14.201-64.005-49.956-64.005-91.859 0-0.331 0.002-0.661 0.005-0.992v0.051-43.52c-0.025-0.816-0.039-1.776-0.039-2.739 0-41.085 25.809-76.142 62.098-89.842l0.661-0.219zM217.28 342.080c-0.029 0.508-0.045 1.101-0.045 1.699 0 16.788 12.928 30.557 29.371 31.894l0.114 0.007c12.686 1.481 23.009 10.195 26.816 21.854l0.064 0.226c4.055 14.545 8.963 27.082 14.957 38.979l-0.557-1.219c2.208 4.232 3.503 9.243 3.503 14.557 0 7.597-2.648 14.576-7.071 20.065l0.048-0.061c-4.24 5.564-6.794 12.613-6.794 20.258 0 9.511 3.952 18.099 10.303 24.212l0.011 0.010 32 29.44c6.104 6.228 14.603 10.089 24.004 10.089 7.884 0 15.134-2.715 20.866-7.262l-0.069 0.053c5.217-3.844 11.771-6.152 18.864-6.152 5.132 0 9.982 1.208 14.281 3.355l-0.185-0.084c10.35 5.66 22.516 10.966 35.17 15.206l1.63 0.474c11.666 3.925 20.211 14.077 21.744 26.404l0.016 0.156c1.344 16.557 15.113 29.485 31.901 29.485 0.598 0 1.191-0.016 1.781-0.049l-0.082 0.004h44.48c0.030 0 0.066 0 0.103 0 16.772 0 30.531-12.903 31.89-29.325l0.008-0.116c1.481-12.686 10.195-23.009 21.854-26.816l0.226-0.064c15.080-4.425 28.026-9.648 40.323-15.958l-1.283 0.598c4.232-2.208 9.243-3.503 14.557-3.503 7.597 0 14.576 2.648 20.065 7.071l-0.061-0.048c5.564 4.24 12.613 6.794 20.258 6.794 9.511 0 18.099-3.952 24.212-10.303l0.010-0.011 32-32c6.166-6.143 9.981-14.642 9.981-24.031 0-7.859-2.672-15.093-7.158-20.844l0.057 0.075c-4.787-5.56-7.702-12.851-7.702-20.823 0-4.256 0.831-8.317 2.339-12.031l-0.077 0.214c5.749-10.697 10.967-23.209 14.963-36.255l0.397-1.505c3.871-11.885 14.194-20.599 26.73-22.066l0.15-0.014c16.236-2.070 28.757-15.473 29.438-31.933l0.002-0.067v-43.84c0-0.030 0-0.066 0-0.103 0-16.772-12.903-30.531-29.325-31.89l-0.116-0.008c-12.686-1.481-23.009-10.195-26.816-21.854l-0.064-0.226c-4.201-15.464-9.443-28.86-15.917-41.52l0.557 1.2c-2.208-4.232-3.503-9.243-3.503-14.557 0-7.597 2.648-14.576 7.071-20.065l-0.048 0.061c4.24-5.564 6.794-12.613 6.794-20.258 0-9.511-3.952-18.099-10.303-24.212l-0.011-0.010-32-32c-6.143-6.166-14.642-9.981-24.031-9.981-7.859 0-15.093 2.672-20.844 7.158l0.075-0.057c-5.56 4.787-12.851 7.702-20.823 7.702-4.256 0-8.317-0.831-12.031-2.339l0.214 0.077c-10.697-5.749-23.209-10.967-36.255-14.963l-1.505-0.397c-11.885-3.871-20.599-14.194-22.066-26.73l-0.014-0.15c-2.070-16.236-15.473-28.757-31.933-29.438l-0.067-0.002h-45.12c-0.030 0-0.066 0-0.103 0-16.772 0-30.531 12.903-31.89 29.325l-0.008 0.116c-1.481 12.686-10.195 23.009-21.854 26.816l-0.226 0.064c-15.010 4.299-27.963 9.528-40.215 15.918l1.175-0.558c-4.293 2.162-9.348 3.454-14.698 3.52h-0.022c-7.542-0.045-14.456-2.692-19.901-7.088l0.061 0.048c-5.564-4.24-12.613-6.794-20.258-6.794-9.511 0-18.099 3.952-24.212 10.303l-0.010 0.011-30.4 32c-6.228 6.104-10.089 14.603-10.089 24.004 0 7.884 2.715 15.134 7.262 20.866l-0.053-0.069c4.204 5.364 6.741 12.209 6.741 19.646 0 4.828-1.069 9.406-2.983 13.51l0.082-0.197c-5.745 10.398-11.054 22.568-15.238 35.251l-0.442 1.549c-3.925 11.666-14.077 20.211-26.404 21.744l-0.156 0.016c-16.566 1.335-29.504 15.108-29.504 31.902 0 0.71 0.023 1.414 0.069 2.113l-0.005-0.095zM512 145.28c96.495 0 174.72 78.225 174.72 174.72s-78.225 174.72-174.72 174.72c-96.495 0-174.72-78.225-174.72-174.72v0c0.182-96.422 78.298-174.538 174.702-174.72h0.018zM512 430.72c61.149 0 110.72-49.571 110.72-110.72s-49.571-110.72-110.72-110.72c-61.149 0-110.72 49.571-110.72 110.72v0c0 61.149 49.571 110.72 110.72 110.72v0z" />
<glyph unicode="&#xe903;" glyph-name="global" d="M512 680c-198.823 0-360-161.177-360-360s161.177-360 360-360c198.823 0 360 161.177 360 360v0c0 198.823-161.177 360-360 360v0zM636.48 548.48h-49.6v-28.16 32l26.24 47.040c61.141-22.231 111.455-62.008 146.215-113.201l0.665-1.039-4.8-5.76h-5.12c-2.116 0.344-4.555 0.54-7.040 0.54-25.483 0-46.14-20.658-46.14-46.14 0-22.998 16.825-42.065 38.838-45.566l0.263-0.034-53.44-164.16c-1.943-5.808-7.334-9.92-13.685-9.92-0.026 0-0.052 0-0.079 0h0.004c-7.953 0-14.4 6.447-14.4 14.4v0 64c-0.36 32.838-26.975 59.341-59.823 59.52h-0.017c-1.219-0.102-2.637-0.16-4.070-0.16-28.63 0-51.84 23.21-51.84 51.84s23.21 51.84 51.84 51.84c1.432 0 2.851-0.058 4.254-0.172l-0.185 0.012h42.24c23.744 2.043 42.243 21.821 42.243 45.92s-18.499 43.877-42.071 45.908l-0.172 0.012zM434.56 605.44v-22.72l-47.68-24.32v7.36c-0.173 7.164-2.675 13.712-6.773 18.95l0.053-0.070c15.435 7.949 33.502 15.042 52.333 20.307l2.067 0.493zM247.040 451.52c5.68-5.328 13.334-8.61 21.754-8.64h36.806l-39.36-46.4c-6.57-7.826-10.561-18.009-10.561-29.125 0-0.111 0-0.222 0.001-0.332v0.017-3.84c0-5.479-4.441-9.92-9.92-9.92v0h-27.84c4.099 36.472 14.406 69.709 29.876 99.861l-0.756-1.621zM467.2 105.28c0-0.006 0-0.014 0-0.022 0-8.221-3.298-15.672-8.644-21.102l0.004 0.004c-11.813-11.912-19.133-28.295-19.2-46.387v-5.773c-52.565 13.609-97.841 39.689-134.153 74.95l0.073-0.070v1.6l34.56 61.44c8.842 13.176 23.681 21.731 40.519 21.731 9.93 0 19.164-2.975 26.861-8.083l-0.18 0.112 48.32-32c6.403-4.306 10.56-11.524 10.56-19.713 0-0.045 0-0.089 0-0.133v0.007zM801.92 380.16c3.869-17.582 6.085-37.777 6.085-58.491 0-0.587-0.002-1.173-0.005-1.76v0.090c-0.182-163.403-132.597-295.818-295.982-296h-8.978s0 0 0 0v13.44c16.804 16.747 27.201 39.913 27.201 65.507 0 0.145 0 0.29-0.001 0.435v-0.022 27.84c0 0.104 0.001 0.228 0.001 0.351 0 30.195-15.376 56.799-38.725 72.41l-0.316 0.199-48.32 32c-17.305 11.323-38.5 18.059-61.269 18.059-38.795 0-73.022-19.557-93.361-49.35l-0.251-0.389-25.6-44.48c-23.672 36.429-39.678 79.925-44.688 126.711l-0.112 1.289h28.16c0.193-0.002 0.422-0.003 0.651-0.003 40.199 0 72.871 32.228 73.588 72.256l0.001 0.067 40.32 48.32c8.678 10.314 13.951 23.744 13.951 38.406 0 33.049-26.791 59.84-59.84 59.84-0.292 0-0.584-0.002-0.875-0.006h-31.956c12.439 15.235 25.86 28.758 40.476 40.89l0.484 0.39c0.879-14.923 7.19-28.223 16.964-38.084l-0.004 0.004c10.54-10.861 25.274-17.601 41.582-17.601 0.119 0 0.237 0 0.356 0.001h-0.018c9.805 0.033 19.050 2.394 27.223 6.559l-0.343-0.159 55.68 27.84c19.155 9.978 32.009 29.683 32.009 52.391 0 0.369-0.003 0.737-0.010 1.104l0.001-0.055v26.24c-0.214 3.275-0.784 6.331-1.675 9.246l0.075-0.286h15.040c12.178-0.001 24.191-0.699 36.004-2.055l-1.444 0.135-17.6-32c-5.040-9.201-8.005-20.158-8.005-31.808 0-17.332 6.562-33.132 17.336-45.050l-0.052 0.058c-35.846-20.077-59.676-57.818-59.676-101.125 0-63.405 51.082-114.879 114.336-115.514h0.060v-61.44c0-43.299 35.101-78.4 78.4-78.4v0 0c34.377 0.189 63.522 22.384 74.075 53.206l0.165 0.554 56.96 175.040c0.769 0.918 1.415 1.974 1.89 3.119l0.030 0.081z" />
<glyph unicode="&#xe904;" glyph-name="login" d="M222.080 15.36c0 0 0-0.001 0-0.001 0-30.574 24.786-55.36 55.36-55.36 0.112 0 0.225 0 0.337 0.001h468.463c0.095-0.001 0.207-0.001 0.32-0.001 30.574 0 55.36 24.786 55.36 55.36 0 0 0 0.001 0 0.001v0 608c0 0 0 0.001 0 0.001 0 30.574-24.786 55.36-55.36 55.36-0.112 0-0.225 0-0.337-0.001h-468.463c-0.099 0.001-0.217 0.001-0.335 0.001-30.125 0-54.63-24.062-55.344-54.015l-0.001-0.066v-93.76c0-17.673 14.327-32 32-32s32 14.327 32 32v0 85.12h451.84v-592h-451.84v38.080c0 17.673-14.327 32-32 32s-32-14.327-32-32v0zM222.080 320c0-17.673 14.327-32 32-32v0h260.8l-79.040-79.040c-5.846-5.8-9.466-13.837-9.466-22.72s3.619-16.92 9.463-22.718l0.002-0.002c5.75-5.705 13.658-9.242 22.393-9.28h0.007c0.055 0 0.12-0.001 0.185-0.001 8.791 0 16.753 3.545 22.537 9.283l117.118 117.118c10.078 9.931 16.321 23.729 16.321 38.985 0 0.132 0 0.264-0.001 0.395v-0.020s0 0 0 0c-0.319 12.208-4.734 23.327-11.914 32.093l0.074-0.093-122.56 124.48c-5.786 5.746-13.758 9.298-22.56 9.298-17.683 0-32.018-14.335-32.018-32.018 0-8.881 3.616-16.918 9.456-22.718l0.002-0.002 80-79.040h-260.8c-17.673 0-32-14.327-32-32v0z" />
<glyph unicode="&#xe905;" glyph-name="logout" d="M222.080 15.36c0 0 0-0.001 0-0.001 0-30.574 24.786-55.36 55.36-55.36 0.112 0 0.225 0 0.337 0.001h468.463c0.095-0.001 0.207-0.001 0.32-0.001 30.574 0 55.36 24.786 55.36 55.36 0 0 0 0.001 0 0.001v0 608c0 0 0 0.001 0 0.001 0 30.574-24.786 55.36-55.36 55.36-0.112 0-0.225 0-0.337-0.001h-468.463c-0.099 0.001-0.217 0.001-0.335 0.001-30.125 0-54.63-24.062-55.344-54.015l-0.001-0.066v-93.76c0-17.673 14.327-32 32-32s32 14.327 32 32v0 85.12h451.84v-592h-451.84v38.080c0 17.673-14.327 32-32 32s-32-14.327-32-32v0zM238.4 280.64l117.44-117.12c5.75-5.705 13.658-9.242 22.393-9.28h0.007c0.055 0 0.12-0.001 0.185-0.001 8.791 0 16.753 3.545 22.537 9.283l-0.002-0.002c5.846 5.8 9.466 13.837 9.466 22.72s-3.619 16.92-9.463 22.718l-79.042 79.042h260.48c17.673 0 32 14.327 32 32s-14.327 32-32 32v0h-260.48l79.040 79.040c5.846 5.8 9.466 13.837 9.466 22.72s-3.619 16.92-9.463 22.718l-0.002 0.002c-5.784 5.751-13.757 9.305-22.56 9.305s-16.776-3.555-22.562-9.307l-117.438-117.438c-8.954-9.578-14.452-22.484-14.452-36.675 0-0.832 0.019-1.659 0.056-2.482l-0.004 0.117c-0.012-0.441-0.019-0.961-0.019-1.482 0-14.569 5.47-27.861 14.468-37.933l-0.049 0.055z" />
<glyph unicode="&#xe906;" glyph-name="user" d="M513.92 128c0 0 0 0 0 0 122.539 0 221.897 99.246 222.080 221.742v109.138c0 122.475-99.285 221.76-221.76 221.76s-221.76-99.285-221.76-221.76v0-109.12c0.181-122.289 99.176-221.396 221.405-221.76h0.035zM356.16 458.88c0 87.128 70.632 157.76 157.76 157.76s157.76-70.632 157.76-157.76v0-109.12c0-87.128-70.632-157.76-157.76-157.76s-157.76 70.632-157.76 157.76v0zM238.72-42.56h548.48c49.127 1.585 88.349 41.79 88.349 91.155 0 0.803-0.010 1.604-0.031 2.403l0.002-0.118v68.48c0 24.64-10.88 69.76-82.88 92.48l-51.52 15.68c-2.215 0.547-4.758 0.861-7.374 0.861-17.673 0-32-14.327-32-32 0-13.655 8.553-25.313 20.594-29.908l0.22-0.074 51.2-15.68c37.76-11.84 37.76-26.56 37.76-32v-68.48c0.051-0.628 0.080-1.359 0.080-2.097 0-14.1-10.603-25.723-24.271-27.33l-0.129-0.012h-548.48c-13.648 1.767-24.083 13.317-24.083 27.305 0 0.752 0.030 1.496 0.089 2.233l-0.006-0.097v69.12c0 4.8 0 19.52 37.44 32l51.52 15.68c13.119 4.194 22.452 16.278 22.452 30.542 0 3.258-0.487 6.402-1.392 9.364l0.060-0.227c-4.073 13.316-16.255 22.834-30.659 22.834-3.333 0-6.547-0.509-9.568-1.455l0.227 0.061-51.52-15.68c-73.28-23.36-82.56-68.48-82.56-93.12v-68.48c-0.024-0.776-0.037-1.689-0.037-2.604 0-49.192 39.084-89.256 87.893-90.832l0.145-0.004z" />
<glyph unicode="&#xe907;" glyph-name="time" d="M666.88 472l-157.12-138.88-101.12 72.32c-5.179 3.638-11.616 5.814-18.56 5.814-17.968 0-32.534-14.566-32.534-32.534 0-11.023 5.482-20.766 13.869-26.651l0.104-0.069 121.92-87.040c5.143-3.76 11.582-6.033 18.549-6.080h0.011c8.115 0.012 15.52 3.043 21.154 8.029l-0.034-0.029 176 155.84c6.754 5.898 10.997 14.525 10.997 24.142 0 8.193-3.079 15.667-8.144 21.328l0.027-0.031c-5.909 6.984-14.679 11.388-24.478 11.388-7.888 0-15.11-2.854-20.689-7.586l0.046 0.038zM512 680c-198.823 0-360-161.177-360-360s161.177-360 360-360c198.823 0 360 161.177 360 360v0c0 198.823-161.177 360-360 360v0zM512 24c-163.476 0-296 132.524-296 296s132.524 296 296 296c163.476 0 296-132.524 296-296v0c-0.182-163.403-132.597-295.818-295.982-296h-0.018z" />
<glyph unicode="&#xe908;" glyph-name="power" d="M512-40.64c197.903 0.515 358.135 161.065 358.135 359.039 0 145.972-87.111 271.598-212.184 327.73l-2.272 0.911c-3.813 1.731-8.269 2.74-12.96 2.74-17.684 0-32.020-14.336-32.020-32.020 0-12.993 7.739-24.178 18.858-29.199l0.202-0.081c105.031-46.619 176.96-149.995 176.96-270.171 0-162.769-131.951-294.72-294.72-294.72s-294.72 131.951-294.72 294.72c0 120.176 71.929 223.552 175.083 269.426l1.877 0.745c11.321 5.102 19.060 16.287 19.060 29.28 0 17.684-14.336 32.020-32.020 32.020-4.691 0-9.147-1.009-13.162-2.821l0.202 0.081c-127.345-57.043-214.455-182.669-214.455-328.641 0-197.974 160.232-358.524 358.086-359.039h0.050zM480 648v-331.2c0-17.673 14.327-32 32-32s32 14.327 32 32v0 331.2c0 17.673-14.327 32-32 32s-32-14.327-32-32v0z" />
<glyph unicode="&#xe909;" glyph-name="heart" d="M512-21.12l294.4 297.28c40.669 39.281 65.921 94.296 65.921 155.21 0 119.117-96.563 215.68-215.68 215.68-55.741 0-106.543-21.145-144.822-55.852l0.181 0.162c-37.79 34.911-88.502 56.321-144.216 56.321-0.262 0-0.523 0-0.784-0.001h0.040c-0.019 0-0.041 0-0.063 0-119.47 0-216.32-96.85-216.32-216.32 0-58.159 22.952-110.958 60.292-149.833l-0.069 0.073zM365.76 583.68c0.192 0.001 0.419 0.001 0.646 0.001 48.376 0 91.394-22.937 118.774-58.529l0.261-0.353 25.28-32 25.28 32c27.702 35.948 70.769 58.881 119.192 58.881 0.172 0 0.343 0 0.515-0.001h-0.027c0.118 0 0.257 0.001 0.396 0.001 84.124 0 152.32-68.196 152.32-152.32 0-43.911-18.581-83.483-48.309-111.281l-0.086-0.080-248-250.24-256 256.32c-25.254 27.11-40.756 63.597-40.756 103.705 0 83.152 66.629 150.742 149.41 152.293l0.145 0.002z" />
<glyph unicode="&#xe90a;" glyph-name="link" d="M256-42.56h400.32c57.968 0 104.96 46.992 104.96 104.96v0 219.2c0 17.673-14.327 32-32 32s-32-14.327-32-32v0-219.2c0-22.622-18.338-40.96-40.96-40.96v0h-400.32c-22.622 0-40.96 18.338-40.96 40.96v0 401.92c0 22.622 18.338 40.96 40.96 40.96v0h217.6c17.673 0 32 14.327 32 32s-14.327 32-32 32v0h-217.6c-57.968 0-104.96-46.992-104.96-104.96v0-401.92c0-57.968 46.992-104.96 104.96-104.96v0zM416 222.4c5.782-5.736 13.744-9.281 22.535-9.281 0.065 0 0.13 0 0.195 0.001h-0.010c0.055 0 0.12-0.001 0.185-0.001 8.791 0 16.753 3.545 22.537 9.283l-0.002-0.002 345.28 347.2v-141.76c0-17.673 14.327-32 32-32s32 14.327 32 32v0 250.88h-250.88c-17.673 0-32-14.327-32-32s14.327-32 32-32v0h141.76l-345.6-346.88c-5.846-5.8-9.466-13.837-9.466-22.72s3.619-16.92 9.463-22.718l0.002-0.002z" />
<glyph unicode="&#xe90b;" glyph-name="add" horiz-adv-x="1008" d="M516.8 680c-198.823 0-360-161.177-360-360s161.177-360 360-360c198.823 0 360 161.177 360 360v0c-0.182 198.75-161.251 359.818-359.983 360h-0.017zM516.8 24c-163.476 0-296 132.524-296 296s132.524 296 296 296c163.476 0 296-132.524 296-296v0c-0.182-163.403-132.597-295.818-295.982-296h-0.018zM688.96 352h-140.16v140.16c0 17.673-14.327 32-32 32s-32-14.327-32-32v0-140.16h-140.48c-17.673 0-32-14.327-32-32s14.327-32 32-32v0h140.48v-140.16c0-17.673 14.327-32 32-32s32 14.327 32 32v0 140.16h140.16c17.673 0 32 14.327 32 32s-14.327 32-32 32v0z" />
<glyph unicode="&#xe90c;" glyph-name="minus" d="M512 680c-198.823 0-360-161.177-360-360s161.177-360 360-360c198.823 0 360 161.177 360 360v0c0 198.823-161.177 360-360 360v0zM512 24c-163.476 0-296 132.524-296 296s132.524 296 296 296c163.476 0 296-132.524 296-296v0c-0.182-163.403-132.597-295.818-295.982-296h-0.018zM684.16 352h-344.32c-17.673 0-32-14.327-32-32s14.327-32 32-32v0h344.32c17.673 0 32 14.327 32 32s-14.327 32-32 32v0z" />
<glyph unicode="&#xe90d;" glyph-name="edit" d="M208.64-40h3.84l177.6 19.84c12.61 1.586 23.663 7.28 31.997 15.677l416.003 416.003c19.76 19.845 31.976 47.216 31.976 77.44s-12.216 57.595-31.98 77.444l0.004-0.004-80 78.72c-19.733 19.752-46.997 31.978-77.116 32h-0.004c-30.202-0.155-57.527-12.344-77.452-32.012l-415.988-415.988c-8.526-8.255-14.255-19.352-15.658-31.76l-0.022-0.24-19.52-177.92c-0.072-0.91-0.113-1.97-0.113-3.040s0.041-2.13 0.122-3.179l-0.009 0.139c0.514-29.472 24.526-53.167 54.072-53.167 0.79 0 1.577 0.017 2.359 0.051l-0.112-0.004zM469.12 132.48l-49.28 49.28 241.28 241.6 49.6-49.92zM648.64 599.68c8.211 8.185 19.495 13.292 31.972 13.44h0.028c12.567-0.127 23.885-5.373 31.988-13.748l0.012-0.012 80-79.040c8.297-8.137 13.44-19.465 13.44-31.994 0-0.002 0-0.005 0-0.007v0c0.035-0.656 0.055-1.423 0.055-2.196 0-11.503-4.398-21.978-11.604-29.837l0.030 0.033s0 0-1.6-1.6v0l-37.12-37.12-72.64 72.64-71.36 72.64zM566.72 517.44l48.96-48.96-240.96-241.28-49.28 49.28zM235.84 186.88l44.16 44.16 64-64c1.816-3.807 4.063-7.078 6.74-9.942l-0.020 0.022c2.792-2.65 6.081-4.81 9.708-6.322l0.212-0.078 64-64-44.48-44.16-96-10.88c-1.524 3.323-3.455 6.176-5.777 8.658l0.017-0.018-54.4 52.16z" />
<glyph unicode="&#xe90e;" glyph-name="delete" d="M192 559.040c0-17.673 14.327-32 32-32v0h576c17.673 0 32 14.327 32 32s-14.327 32-32 32v0h-154.56v56.96c0 17.673-14.327 32-32 32v0h-202.88c-17.673 0-32-14.327-32-32v0-56.96h-154.56c-17.673 0-32-14.327-32-32v0zM442.24 616h138.88v-24.96h-138.56zM761.6-8v473.92c0 17.673-14.327 32-32 32s-32-14.327-32-32v0-441.92h-373.76v441.92c0 17.673-14.327 32-32 32s-32-14.327-32-32v0-473.92c0-17.673 14.327-32 32-32v0h437.76c17.673 0 32 14.327 32 32v0zM433.92 149.12v224c0 17.673-14.327 32-32 32s-32-14.327-32-32v0-224c0-17.673 14.327-32 32-32s32 14.327 32 32v0zM653.76 149.12v224c0 17.673-14.327 32-32 32s-32-14.327-32-32v0-224c0-17.673 14.327-32 32-32s32 14.327 32 32v0zM544 102.72v298.88c0 17.673-14.327 32-32 32s-32-14.327-32-32v0-298.88c0-17.673 14.327-32 32-32s32 14.327 32 32v0z" />
<glyph unicode="&#xe90f;" glyph-name="cloud" d="M800 366.4c0 5.12 0 9.92 0 14.72 0 0.090 0 0.196 0 0.302 0 94.374-76.506 170.88-170.88 170.88-21.856 0-42.754-4.103-61.965-11.581l1.164 0.399c-37.679 39.201-90.555 63.554-149.12 63.554-114.124 0-206.648-92.48-206.72-206.588v-0.007c0.050-13.381 1.328-26.431 3.729-39.084l-0.209 1.324c-41.413-33.826-67.641-84.89-67.641-142.080 0-101.090 81.95-183.040 183.040-183.040 0.043 0 0.085 0 0.128 0h360.953c0.011 0 0.025 0 0.039 0 101.090 0 183.040 81.95 183.040 183.040 0 60.701-29.547 114.5-75.043 147.8l-0.515 0.36zM692.48 99.2h-360.96c-0.188-0.001-0.411-0.002-0.634-0.002-65.744 0-119.040 53.296-119.040 119.040 0 42.911 22.705 80.52 56.758 101.466l0.516 0.295c9.193 5.73 15.219 15.785 15.219 27.247 0 3.411-0.534 6.697-1.522 9.779l0.063-0.227c-4.017 12.43-6.355 26.734-6.4 41.577v0.023c0 0.135-0.001 0.295-0.001 0.455 0 78.645 63.755 142.4 142.4 142.4 47.185 0 89.010-22.95 114.922-58.296l0.279-0.399c5.883-8.063 15.3-13.243 25.927-13.243 5.888 0 11.405 1.59 16.145 4.365l-0.151-0.082c15.136 9.049 33.387 14.4 52.888 14.4 0.082 0 0.163 0 0.245 0h-0.013c58.955-0.181 106.699-47.925 106.88-106.863v-0.017c-0.066-8.197-0.996-16.141-2.701-23.792l0.141 0.752c-0.522-2.164-0.821-4.649-0.821-7.204 0-11.985 6.588-22.43 16.341-27.913l0.161-0.083c37.712-20.476 62.885-59.78 62.885-104.963 0-65.744-53.296-119.040-119.040-119.040-0.283 0-0.566 0.001-0.849 0.003h0.043z" />
<glyph unicode="&#xe910;" glyph-name="service" d="M772.8 293.12c0 4.16 0 8 0 12.16 0 88.366-71.634 160-160 160v0c-19.788-0.139-38.687-3.764-56.172-10.29l1.132 0.37c-34.83 35.271-83.184 57.117-136.641 57.117-106.039 0-192-85.961-192-192 0-0.168 0-0.336 0.001-0.504v0.026c0.107-11.381 1.15-22.441 3.056-33.202l-0.176 1.202c-37.843-31.452-61.759-78.533-61.759-131.2 0-94.021 76.219-170.24 170.24-170.24 0.112 0 0.224 0 0.336 0h331.183c0.132 0 0.288-0.001 0.444-0.001 94.021 0 170.24 76.219 170.24 170.24 0 56.146-27.18 105.944-69.101 136.954l-0.463 0.327zM672 49.6h-331.2c-58.851 0-106.56 47.709-106.56 106.56v0c0.359 38 20.259 71.275 50.122 90.299l0.438 0.261c9.146 5.739 15.136 15.768 15.136 27.196 0 3.312-0.503 6.506-1.437 9.511l0.061-0.227c-3.328 10.992-5.306 23.639-5.439 36.728l-0.001 0.072c0 0.005 0 0.011 0 0.017 0 70.692 57.308 128 128 128 42.3 0 79.807-20.518 103.112-52.145l0.248-0.352c5.883-8.063 15.3-13.243 25.927-13.243 5.888 0 11.405 1.59 16.145 4.365l-0.151-0.082c13.537 8.178 29.872 13.045 47.339 13.12h0.021c53.019 0 96-42.981 96-96v0c-0.048-7.293-0.979-14.345-2.69-21.086l0.13 0.606c-0.564-2.249-0.888-4.83-0.888-7.487 0-12.011 6.618-22.477 16.406-27.95l0.162-0.083c31.846-18.742 52.882-52.849 52.882-91.869 0-57.803-46.163-104.825-103.634-106.209l-0.129-0.002zM624.96 507.84c9.338 7.768 21.455 12.483 34.674 12.483 0.185 0 0.37-0.001 0.554-0.003h-0.028c27.251-0.080 49.968-19.392 55.296-45.073l0.064-0.367c2.952-14.871 15.894-25.925 31.418-25.925 0.205 0 0.409 0.002 0.612 0.006h-0.031c0.914-0.149 1.967-0.234 3.040-0.234s2.126 0.085 3.153 0.249l-0.113-0.015c14.836 2.98 25.854 15.905 25.854 31.404 0 2.135-0.209 4.221-0.608 6.239l0.033-0.203c-11.817 55.201-60.184 95.992-118.079 96h-0.001c-0.241 0.002-0.527 0.003-0.813 0.003-28.324 0-54.306-10.027-74.59-26.724l0.202 0.162c-7.341-5.914-11.998-14.902-11.998-24.978 0-7.516 2.591-14.426 6.929-19.887l-0.050 0.066c5.887-6.583 14.405-10.707 23.887-10.707 7.866 0 15.068 2.838 20.64 7.546l-0.047-0.039zM660.16 678.4c-0.155 0-0.338 0.001-0.522 0.001-50.75 0-97.358-17.739-133.959-47.355l0.401 0.314c-7.318-5.914-11.959-14.889-11.959-24.947 0-7.674 2.701-14.717 7.205-20.23l-0.045 0.057c5.913-7.227 14.833-11.803 24.821-11.803 7.586 0 14.556 2.64 20.041 7.051l-0.062-0.048c25.5 20.545 58.288 32.978 93.98 32.978 72.881 0 133.655-51.839 147.459-120.657l0.161-0.961c2.952-14.871 15.894-25.925 31.418-25.925 0.205 0 0.409 0.002 0.612 0.006h6.049c14.836 2.98 25.854 15.905 25.854 31.404 0 2.135-0.209 4.221-0.608 6.239l0.033-0.203c-19.622 99.82-106.426 174.080-210.575 174.080-0.107 0-0.215 0-0.322 0h0.017z" />
<glyph unicode="&#xe911;" glyph-name="project" d="M808.64 544h-264.64l-39.040 76.8c-5.372 10.494-16.096 17.561-28.475 17.6h-261.445c-43.829 0-79.36-35.531-79.36-79.36v0-480c0.182-43.691 35.643-79.040 79.359-79.040 0 0 0 0 0.001 0h593.92c43.829 0 79.36 35.531 79.36 79.36v0 384c0.007 0.381 0.010 0.83 0.010 1.281 0 43.829-35.531 79.36-79.36 79.36-0.116 0-0.232 0-0.348-0.001h0.018zM824.32 79.68c0.002-0.096 0.003-0.21 0.003-0.323 0-8.306-6.734-15.040-15.040-15.040-0.114 0-0.227 0.001-0.34 0.004h-593.903c-0.095-0.002-0.207-0.003-0.32-0.003-8.306 0-15.040 6.734-15.040 15.040 0 0.001 0 0.002 0 0.004v0 247.36s2.88 0 4.8 0h619.84zM824.32 390.4h-619.84c-0.72 0.087-1.554 0.137-2.4 0.137s-1.68-0.050-2.499-0.146l0.099 0.010v168.64c0 8.483 6.877 15.36 15.36 15.36v0h241.6l38.72-77.12c5.29-10.624 16.033-17.817 28.466-17.92h284.814c0.095 0.002 0.207 0.003 0.32 0.003 8.483 0 15.36-6.877 15.36-15.36 0-0.001 0-0.002 0-0.004v0z" />
<glyph unicode="&#xe912;" glyph-name="device" d="M512 678.4v0c-0.407 0.002-0.89 0.003-1.372 0.003-198.292 0-359.040-160.748-359.040-359.040 0-99.886 40.789-190.244 106.618-255.329l0.034-0.033c64.453-64.457 153.496-104.325 251.851-104.325 0.671 0 1.342 0.002 2.012 0.006h-0.103c198.469 0 359.36 160.891 359.36 359.36s-160.891 359.36-359.36 359.36v0zM512 23.68v0c-163.123 0-295.36 132.237-295.36 295.36s132.237 295.36 295.36 295.36v0c163.123 0 295.36-132.237 295.36-295.36s-132.237-295.36-295.36-295.36v0zM512 526.080v0c-114.345 0-207.040-92.695-207.040-207.040s92.695-207.040 207.040-207.040v0 0c114.345 0 207.040 92.695 207.040 207.040s-92.695 207.040-207.040 207.040v0zM613.12 217.92c-25.742-25.894-61.385-41.92-100.771-41.92-0.123 0-0.245 0-0.368 0h0.019c-78.999 0-143.040 64.041-143.040 143.040s64.041 143.040 143.040 143.040v0c78.978-0.028 142.991-64.058 142.991-143.040 0-39.487-16-75.237-41.871-101.121l0.001 0.001z" />
<glyph unicode="&#xe913;" glyph-name="deploy" d="M840 472.96c17.673 0 32 14.327 32 32v0 143.040c0 17.673-14.327 32-32 32v0h-143.040c-17.673 0-32-14.327-32-32s14.327-32 32-32v0h65.92l-128-128c-5.515-5.74-8.912-13.552-8.912-22.157 0-3.518 0.568-6.903 1.616-10.069l-0.065 0.226c-30.66 26.451-70.889 42.562-114.88 42.562s-84.22-16.111-115.108-42.754l0.228 0.192c0.984 2.94 1.552 6.325 1.552 9.843 0 8.605-3.396 16.417-8.922 22.167l0.010-0.011-128 128h65.92c17.673 0 32 14.327 32 32s-14.327 32-32 32v0h-144.32c-17.673 0-32-14.327-32-32v0-143.040c0-17.673 14.327-32 32-32s32 14.327 32 32v0 65.92l128-128c5.432-5.703 13.084-9.25 21.564-9.25 3.749 0 7.336 0.693 10.64 1.959l-0.204-0.069c-26.451-30.66-42.562-70.889-42.562-114.88s16.111-84.22 42.754-115.108l-0.192 0.228c-2.94 0.984-6.325 1.552-9.843 1.552-8.605 0-16.417-3.396-22.167-8.922l0.011 0.010-128-128v64.64c0 17.673-14.327 32-32 32s-32-14.327-32-32v0-143.040c0-17.673 14.327-32 32-32v0h143.040c17.673 0 32 14.327 32 32s-14.327 32-32 32v0h-65.92l128 128c5.515 5.74 8.912 13.552 8.912 22.157 0 3.518-0.568 6.903-1.616 10.069l0.065-0.226c30.66-26.451 70.889-42.562 114.88-42.562s84.22 16.111 115.108 42.754l-0.228-0.192c-0.984-2.94-1.552-6.325-1.552-9.843 0-8.605 3.396-16.417 8.922-22.167l-0.010 0.011 128-128h-64.64c-17.673 0-32-14.327-32-32s14.327-32 32-32v0h143.040c17.673 0 32 14.327 32 32v0 143.040c0 17.673-14.327 32-32 32s-32-14.327-32-32v0-65.92l-128 128c-5.74 5.515-13.552 8.912-22.157 8.912-3.518 0-6.903-0.568-10.069-1.616l0.226 0.065c26.451 30.66 42.562 70.889 42.562 114.88s-16.111 84.22-42.754 115.108l0.192-0.228c3.1-1.197 6.687-1.89 10.436-1.89 8.48 0 16.132 3.547 21.552 9.238l0.011 0.012 128 128v-65.92c0.706-17.114 14.751-30.72 31.974-30.72 0.009 0 0.018 0 0.027 0h-0.001zM512 207.36c-62.209 0-112.64 50.431-112.64 112.64s50.431 112.64 112.64 112.64c62.209 0 112.64-50.431 112.64-112.64v0c-0.181-62.136-50.504-112.459-112.623-112.64h-0.017z" />
<glyph unicode="&#xe914;" glyph-name="modal" d="M870.080 501.44c0.067 0.743 0.105 1.608 0.105 2.481 0 4.438-0.982 8.647-2.741 12.42l0.076-0.181c-4.138 8.547-11.722 14.873-20.898 17.232l-0.222 0.048c-3.703 2.771-7.912 5.234-12.389 7.199l-0.411 0.161-289.6 134.080c-9.565 3.12-20.573 4.918-32 4.918s-22.435-1.799-32.754-5.129l0.754 0.21-288-134.080c-24.341-9.427-41.287-32.652-41.287-59.834 0-0.34 0.003-0.679 0.008-1.017l-0.001 0.051v-320c0.684-26.543 17.427-49.008 40.843-58.091l0.437-0.149 288-133.76c9.384-4.45 20.388-7.049 32-7.049s22.616 2.599 32.464 7.246l-0.464-0.197 288 134.4c23.487 9.83 39.687 32.624 39.687 59.202 0 0.337-0.003 0.673-0.008 1.009l0.001-0.051v317.44c0.119 1.572 0.186 3.405 0.186 5.253 0 5.737-0.651 11.323-1.883 16.686l0.097-0.499zM480 37.76l-262.72 122.24h-2.56v294.4l265.28-121.92zM261.44 503.36l240.32 111.36c3.074 0.813 6.602 1.28 10.24 1.28s7.166-0.467 10.529-1.344l-0.289 0.064 240.32-111.36-250.56-114.88zM809.28 161.92v0h-2.56l-262.72-124.16v294.72l265.28 121.92z" />
<glyph unicode="&#xe915;" glyph-name="connected" d="M181.44-43.84c4.511 0.009 8.799 0.95 12.687 2.64l-0.207-0.080c21.44 9.28 128 58.88 120.96 135.040-1.6 17.6 30.4 42.24 60.48 57.92l16.32-16.32c18.72-18.796 44.622-30.427 73.24-30.427 15.809 0 30.79 3.549 44.188 9.895l-0.628-0.267 40.96 19.2c30.448 14.132 52.496 41.887 58.467 75.217l0.093 0.623c0.233 2.398 0.366 5.183 0.366 8s-0.133 5.602-0.393 8.351l0.027-0.351h14.4c33.654 6.36 61.155 28.165 75.249 57.612l0.271 0.628 19.2 41.28c6.014 12.712 9.526 27.616 9.526 43.341 0 28.568-11.59 54.429-30.325 73.138l-0.001 0.001c37.12 22.4 82.88 61.12 78.080 111.36 0 20.48 43.84 50.88 75.84 64 11.742 4.916 19.84 16.312 19.84 29.6 0 17.673-14.327 32-32 32-4.386 0-8.565-0.882-12.371-2.479l0.211 0.078c-12.48-5.12-122.24-52.48-115.2-128 1.6-15.36-28.48-40.96-61.12-58.56l-16.32 16.32c-18.887 18.652-44.855 30.173-73.513 30.173-15.691 0-30.575-3.454-43.934-9.642l0.647 0.269-40.96-19.2c-30.317-14.209-52.243-41.946-58.149-75.22l-0.091-0.62c-0.833-4.1-1.309-8.813-1.309-13.637 0-0.718 0.011-1.434 0.032-2.148l-0.002 0.105c-2.154 0.152-4.667 0.239-7.2 0.239s-5.046-0.087-7.536-0.258l0.336 0.018c-33.84-6.331-61.49-28.282-75.57-57.928l-0.27-0.632-18.88-40.96c-6.038-12.756-9.563-27.712-9.563-43.492 0-28.469 11.474-54.258 30.051-72.995l-0.007 0.007c-36.16-21.76-81.92-59.84-77.12-110.72 1.6-19.84-42.24-53.12-82.56-70.4-11.538-5.006-19.461-16.298-19.461-29.441 0-17.673 14.327-32 32-32 0.092 0 0.184 0 0.275 0.001h-0.014zM480 420.8c2.456 12.96 10.836 23.556 22.159 29.015l0.241 0.105 41.6 18.88c4.692 2.226 10.195 3.525 16.002 3.525 0.224 0 0.448-0.002 0.672-0.006h-0.034c0.123 0.001 0.269 0.002 0.415 0.002 10.74 0 20.45-4.409 27.419-11.516l64.006-64.006c6.828-7.116 11.032-16.794 11.032-27.455 0-6.312-1.474-12.279-4.095-17.577l0.104 0.232-19.52-39.68c-6.17-13.689-19.695-23.046-35.406-23.046-8.726 0-16.779 2.887-23.254 7.757l0.099-0.071c-1.011 1.141-1.96 2.395-2.808 3.719l-0.072 0.121-85.44 85.12c-1.514 1.292-3.184 2.555-4.925 3.718l-0.195 0.122c-5.306 6.724-8.511 15.321-8.511 24.667 0 2.25 0.186 4.457 0.543 6.607l-0.032-0.233zM365.76 288l19.2 40.96c5.332 11.625 15.879 20.058 28.562 22.364l0.238 0.036c2.084 0.408 4.481 0.642 6.932 0.642 8.619 0 16.564-2.888 22.919-7.749l-0.091 0.067 2.88-3.84 85.44-84.48 5.44-4.48c4.911-6.531 7.864-14.776 7.864-23.712 0-15.7-9.118-29.271-22.348-35.705l-0.236-0.103-40.96-18.88c-4.907-2.363-10.669-3.744-16.753-3.744-10.817 0-20.614 4.363-27.729 11.426l-63.998 63.998c-6.592 7.155-10.634 16.748-10.634 27.285 0 5.752 1.205 11.223 3.375 16.175l-0.101-0.259z" />
<glyph unicode="&#xe916;" glyph-name="disconnected" d="M800 580.16c0 6.4 22.080 26.56 50.24 38.4 11.785 4.896 19.922 16.314 19.922 29.633 0 4.312-0.853 8.425-2.399 12.18l0.078-0.213c-4.869 11.845-16.317 20.034-29.679 20.034-4.417 0-8.624-0.895-12.452-2.513l0.21 0.079c-15.68-6.72-96-42.24-89.6-103.36 0-6.080-15.040-19.84-34.56-32l-16 16c-18.762 18.76-44.68 30.363-73.309 30.363-15.78 0-30.736-3.525-44.124-9.831l0.633 0.268-40.96-19.2c-30.243-14.15-52.144-41.754-58.146-74.894l-0.094-0.626c-1.032-5.5-1.622-11.828-1.622-18.294 0-16.638 3.907-32.364 10.854-46.309l-0.272 0.604-35.52-35.52c-5.815-5.815-9.411-13.847-9.411-22.72 0-17.745 14.386-32.131 32.131-32.131 8.873 0 16.905 3.596 22.72 9.411v0l30.080 30.4 43.2-43.52-30.080-30.080c-5.751-5.784-9.305-13.757-9.305-22.56s3.555-16.776 9.307-22.562l-0.002 0.002c5.784-5.751 13.757-9.305 22.56-9.305s16.776 3.555 22.562 9.307l-0.002-0.002 36.16 36.8c12.893-6.405 28.042-10.271 44.064-10.559l0.096-0.001c6.488 0.062 12.794 0.641 18.936 1.699l-0.696-0.099c33.84 6.331 61.49 28.282 75.57 57.928l0.27 0.632 18.88 40.96c6.055 12.727 9.59 27.655 9.59 43.41 0 28.558-11.618 54.403-30.386 73.066l-0.005 0.005c30.158 16.976 50.263 48.667 50.56 85.078v0.042zM711.68 405.76l-19.2-40.96c-5.332-11.625-15.879-20.058-28.562-22.364l-0.238-0.036c-2.21-0.43-4.752-0.676-7.351-0.676-10.349 0-19.788 3.899-26.927 10.309l0.037-0.033-85.44 86.72c-7.172 6.934-11.624 16.642-11.624 27.389 0 2.651 0.271 5.239 0.787 7.737l-0.042-0.246c2.165 12.908 10.516 23.481 21.842 28.701l0.238 0.099 40.96 18.88c4.861 2.408 10.583 3.824 16.635 3.84h0.005c10.839-0.66 20.415-5.577 27.168-13.084l0.032-0.036 64-64c6.859-7.168 11.081-16.909 11.081-27.635 0-5.256-1.014-10.276-2.857-14.874l0.095 0.269zM181.44-43.84c0.117-0.002 0.254-0.002 0.392-0.002 4.237 0 8.282 0.823 11.983 2.319l-0.215-0.077c16 6.72 96 42.24 89.6 103.36 0 6.4 15.040 20.16 34.88 32l15.68-16c18.733-18.592 44.538-30.082 73.026-30.082 0.202 0 0.403 0.001 0.605 0.002h-0.031c0.199-0.001 0.434-0.002 0.669-0.002 15.424 0 30.049 3.421 43.158 9.545l-0.627-0.263 40.96 19.2c30.317 14.209 52.243 41.946 58.149 75.22l0.091 0.62c1.021 5.463 1.605 11.749 1.605 18.171 0 28.49-11.491 54.296-30.091 73.036l0.006-0.006-85.44 85.12c-18.674 18.816-44.549 30.464-73.144 30.464-41.259 0-76.854-24.25-93.31-59.274l-0.266-0.63-19.2-42.88c-6.055-12.727-9.59-27.655-9.59-43.41 0-28.558 11.618-54.403 30.386-73.066l0.005-0.005c-30.763-16.032-51.545-47.439-52.159-83.757l-0.001-0.083c0-6.4-22.080-26.56-50.24-38.4-11.785-4.896-19.922-16.314-19.922-29.633 0-4.312 0.853-8.425 2.399-12.18l-0.078 0.213c4.986-11.582 16.301-19.544 29.476-19.544 0.437 0 0.873 0.009 1.306 0.026l-0.062-0.002zM309.44 230.4l18.88 40.96c5.332 11.625 15.879 20.058 28.562 22.364l0.238 0.036h7.040c10.865-0.033 20.696-4.427 27.842-11.522l-0.002 0.002 85.12-85.44c7.275-7.048 11.791-16.908 11.791-27.822 0-2.381-0.215-4.712-0.627-6.975l0.036 0.237c-2.456-12.96-10.836-23.556-22.159-29.015l-0.241-0.105-40.96-18.88c-4.864-2.34-10.574-3.707-16.605-3.707-10.915 0-20.785 4.48-27.869 11.701l-64.006 64.006c-7.227 7.188-11.7 17.14-11.7 28.135 0 5.8 1.244 11.309 3.481 16.275l-0.101-0.251z" />
</font>
</defs>
</svg>
